<svg width="101" height="18" viewBox="0 0 101 18" fill="none" xmlns="http://www.w3.org/2000/svg">
<path d="M0.125 18V0.545454H7.65909C8.95455 0.545454 10.0881 0.801136 11.0597 1.3125C12.0313 1.82386 12.7869 2.54261 13.3267 3.46875C13.8665 4.39489 14.1364 5.47727 14.1364 6.71591C14.1364 7.96591 13.858 9.0483 13.3011 9.96307C12.75 10.8778 11.9744 11.5824 10.9744 12.0767C9.98011 12.571 8.81818 12.8182 7.48864 12.8182H2.98864V9.13636H6.53409C7.09091 9.13636 7.56534 9.03977 7.95739 8.84659C8.35511 8.64773 8.65909 8.36648 8.86932 8.00284C9.08523 7.6392 9.19318 7.21023 9.19318 6.71591C9.19318 6.21591 9.08523 5.78977 8.86932 5.4375C8.65909 5.07955 8.35511 4.80682 7.95739 4.61932C7.56534 4.42614 7.09091 4.32954 6.53409 4.32954H4.86364V18H0.125ZM18.2294 18H13.1158L18.8771 0.545454H25.3544L31.1158 18H26.0021L22.1839 5.35227H22.0476L18.2294 18ZM17.2749 11.1136H26.8885V14.6591H17.2749V11.1136ZM32.7969 18V0.545454H40.331C41.6264 0.545454 42.7599 0.78125 43.7315 1.25284C44.7031 1.72443 45.4588 2.40341 45.9986 3.28977C46.5384 4.17614 46.8082 5.23864 46.8082 6.47727C46.8082 7.72727 46.5298 8.78125 45.973 9.6392C45.4219 10.4972 44.6463 11.1449 43.6463 11.5824C42.652 12.0199 41.4901 12.2386 40.1605 12.2386H35.6605V8.55682H39.206C39.7628 8.55682 40.2372 8.48864 40.6293 8.35227C41.027 8.21023 41.331 7.9858 41.5412 7.67898C41.7571 7.37216 41.8651 6.97159 41.8651 6.47727C41.8651 5.97727 41.7571 5.57102 41.5412 5.25852C41.331 4.94034 41.027 4.70739 40.6293 4.55966C40.2372 4.40625 39.7628 4.32954 39.206 4.32954H37.5355V18H32.7969ZM43.0241 9.98864L47.3878 18H42.2401L37.9787 9.98864H43.0241ZM48.3509 4.36364V0.545454H63.5213V4.36364H58.2713V18H53.6009V4.36364H48.3509ZM65.3047 18V0.545454H70.0433V7.36364H76.3161V0.545454H81.0547V18H76.3161V11.1818H70.0433V18H65.3047ZM87.8388 18H82.7251L88.4865 0.545454H94.9638L100.725 18H95.6115L91.7933 5.35227H91.657L87.8388 18ZM86.8842 11.1136H96.4979V14.6591H86.8842V11.1136Z" fill="url(#paint0_linear_131_2)"/>
<defs>
<linearGradient id="paint0_linear_131_2" x1="-1" y1="9.5" x2="102" y2="9.5" gradientUnits="userSpaceOnUse">
<stop stop-color="#FF2020"/>
<stop offset="1" stop-color="#E02972"/>
</linearGradient>
</defs>
</svg>
